<svg xmlns="http://www.w3.org/2000/svg" width="27.162" height="33.81" viewBox="0 0 27.162 33.81">
  <g id="Group_6801" data-name="Group 6801" transform="translate(0.4 0.4)">
    <path id="Path_5413" data-name="Path 5413" d="M19.72-219.122a9.136,9.136,0,0,1-9.125-9.125,9.136,9.136,0,0,1,9.125-9.125,9.136,9.136,0,0,1,9.127,9.125A9.137,9.137,0,0,1,19.72-219.122Zm0-16.249a7.132,7.132,0,0,0-7.123,7.123,7.132,7.132,0,0,0,7.123,7.123,7.132,7.132,0,0,0,7.124-7.123A7.132,7.132,0,0,0,19.72-235.371Z" transform="translate(-6.776 237.373)" fill="#d32421" stroke="#d32421" stroke-width="0.8"/>
    <path id="Path_5414" data-name="Path 5414" d="M20.915-210.089a39.454,39.454,0,0,1-8.74-.965c-3.275-.746-4.441-2.622-4.441-4.128s1.167-3.384,4.441-4.13h0a40.092,40.092,0,0,1,17.479,0c3.275.748,4.441,2.624,4.441,4.132s-1.167,3.381-4.441,4.129A39.533,39.533,0,0,1,20.915-210.089Zm-8.294-7.271c-1.993.455-2.885,1.422-2.885,2.177s.892,1.723,2.885,2.177a38.022,38.022,0,0,0,16.588,0c1.993-.454,2.885-1.42,2.885-2.177s-.892-1.722-2.885-2.177a38.043,38.043,0,0,0-16.588,0Z" transform="translate(-7.734 243.099)" fill="#d32421" stroke="#d32421" stroke-width="0.8"/>
  </g>
</svg>
