<svg id="Group_6841" data-name="Group 6841" xmlns="http://www.w3.org/2000/svg" width="85" height="103" viewBox="0 0 86.211 103.778">
  <g id="Group_6838" data-name="Group 6838" transform="translate(1.61 1.611)">
    <g id="Group_6837" data-name="Group 6837">
      <g id="Group_6829" data-name="Group 6829" transform="translate(0 42.007)">
        <g id="Group_6828" data-name="Group 6828">
          <g id="Group_6827" data-name="Group 6827">
            <g id="Group_6826" data-name="Group 6826">
              <g id="Group_6821" data-name="Group 6821" transform="translate(28.726)">
                <g id="Group_6820" data-name="Group 6820">
                  <g id="Group_6819" data-name="Group 6819">
                    <g id="Group_6818" data-name="Group 6818">
                      <path id="Path_5451" data-name="Path 5451" d="M250.809,1723.222a4.691,4.691,0,0,1-3.8-4.606v-12.882H229.074v12.882a4.7,4.7,0,0,1-3.8,4.606S252.021,1723.455,250.809,1723.222Z" transform="translate(-225.27 -1705.734)" fill="#fdd3c3"/>
                    </g>
                  </g>
                </g>
              </g>
              <g id="Group_6825" data-name="Group 6825" transform="translate(1.289 18.335)">
                <g id="Group_6824" data-name="Group 6824">
                  <g id="Group_6823" data-name="Group 6823">
                    <g id="Group_6822" data-name="Group 6822">
                      <path id="Path_5452" data-name="Path 5452" d="M243.7,1732.249c-1.277-.245-35.482,0-35.482,0a27.7,27.7,0,0,0-22.466,27.2v9.135a3.752,3.752,0,0,0,3.752,3.752h72.908a3.752,3.752,0,0,0,3.752-3.752v-9.135A27.7,27.7,0,0,0,243.7,1732.249Z" transform="translate(-185.755 -1732.14)" fill="#c60d1c"/>
                    </g>
                  </g>
                </g>
              </g>
              <path id="Path_5453" data-name="Path 5453" d="M261.205,1767.4H195.782l-1.735-31.97a4.944,4.944,0,0,1,4.937-5.212H258a4.944,4.944,0,0,1,4.937,5.212Z" transform="translate(-186.998 -1713.218)" fill="#e5eef9"/>
              <path id="Path_5454" data-name="Path 5454" d="M279.985,1730.22H265.954a4.944,4.944,0,0,1,4.937,5.212l-1.736,31.97h14.031l1.735-31.97A4.943,4.943,0,0,0,279.985,1730.22Z" transform="translate(-208.979 -1713.218)" fill="#d1e3f5"/>
              <path id="Path_5455" data-name="Path 5455" d="M263.427,1780.081H187.362a3.463,3.463,0,1,0,0,6.927h76.064a3.463,3.463,0,1,0,0-6.927Z" transform="translate(-183.899 -1728.458)" fill="#8ab7e2"/>
              <path id="Path_5456" data-name="Path 5456" d="M292.213,1780.081H281.544v3.463a3.463,3.463,0,0,1-3.463,3.464h14.131a3.463,3.463,0,0,0,0-6.927Z" transform="translate(-212.686 -1728.458)" fill="#082782"/>
            </g>
          </g>
          <path id="Path_5457" data-name="Path 5457" d="M243.657,1769.989a11.479,11.479,0,0,1,2.962-7.676l.043-.047a9.825,9.825,0,0,0-2.481-15.091.845.845,0,0,0-1.264.731v7.308a2.218,2.218,0,0,1-2.218,2.218h-2.727a2.218,2.218,0,0,1-2.218-2.218v-7.308a.845.845,0,0,0-1.264-.731,9.825,9.825,0,0,0-2.48,15.091l.042.047a11.475,11.475,0,0,1,2.962,7.676Z" transform="translate(-197.841 -1718.366)" fill="#082782"/>
        </g>
      </g>
      <g id="Group_6836" data-name="Group 6836" transform="translate(16.811)">
        <g id="Group_6835" data-name="Group 6835">
          <g id="Group_6834" data-name="Group 6834">
            <g id="Group_6833" data-name="Group 6833">
              <path id="Path_5458" data-name="Path 5458" d="M252.745,1671.5l-1.2,0-.02-4.828c-.042-10.117-8.39-17.125-17.646-17.19-9.215.144-17.544,7.185-17.5,17.34l.014,3.4.006,1.424-1.2.005a3.2,3.2,0,0,0-3.167,3.233l.015,3.568a3.2,3.2,0,0,0,3.194,3.206l1.2-.006a16.636,16.636,0,0,0,5.594,12.2,17.836,17.836,0,0,0,24.052-.1,16.641,16.641,0,0,0,5.492-12.248l1.2,0a3.2,3.2,0,0,0,3.168-3.233l-.015-3.568a3.2,3.2,0,0,0-3.193-3.207Z" transform="translate(-209.309 -1646.536)" fill="#fdd3c3"/>
              <path id="Path_5459" data-name="Path 5459" d="M263.441,1675.092a3.2,3.2,0,0,0-3.194-3.206l-1.2,0-.02-4.828a17.078,17.078,0,0,0-12.194-16.323,16.878,16.878,0,0,1,2.33,8.591l.057,22.566a16.64,16.64,0,0,1-5.492,12.247,18.8,18.8,0,0,1-7.15,3.993,17.661,17.661,0,0,0,17.014-3.992,16.636,16.636,0,0,0,5.492-12.248l1.2,0a3.2,3.2,0,0,0,3.167-3.233Z" transform="translate(-216.812 -1646.918)" fill="#fabeb1"/>
              <g id="Group_6832" data-name="Group 6832" transform="translate(0 22.061)">
                <g id="Group_6830" data-name="Group 6830" transform="translate(42.262)">
                  <path id="Path_5460" data-name="Path 5460" d="M268.976,1677.007v13.277H272.5a3.58,3.58,0,0,0,3.58-3.58v-6.117a3.58,3.58,0,0,0-3.58-3.58Z" transform="translate(-268.976 -1677.007)" fill="#082782"/>
                </g>
                <g id="Group_6831" data-name="Group 6831">
                  <path id="Path_5461" data-name="Path 5461" d="M215.216,1677.007v13.277H211.69a3.58,3.58,0,0,1-3.58-3.58v-6.117a3.58,3.58,0,0,1,3.58-3.58Z" transform="translate(-208.11 -1677.007)" fill="#082782"/>
                </g>
              </g>
              <path id="Path_5462" data-name="Path 5462" d="M250.481,1652.4H250.3a1.81,1.81,0,0,1-1.81-1.81,5.359,5.359,0,0,0-5.359-5.359H226.073a13.745,13.745,0,0,0-13.745,13.745v9.084a3.136,3.136,0,0,0,2.1,2.961l3.386,1.179a1.819,1.819,0,0,0,2.417-1.721l-.008-6.4a5.608,5.608,0,0,1,5.549-5.664h.067a8.892,8.892,0,0,1,2.764.428,15.7,15.7,0,0,0,4.867.807h1.22a15.7,15.7,0,0,0,4.867-.807,8.914,8.914,0,0,1,2.764-.428h.067a5.607,5.607,0,0,1,5.549,5.664l-.006,6.406a1.82,1.82,0,0,0,2.418,1.72l3.385-1.179a3.136,3.136,0,0,0,2.1-2.961v-10.3A5.359,5.359,0,0,0,250.481,1652.4Z" transform="translate(-209.399 -1645.235)" fill="#625c66"/>
              <path id="Path_5463" data-name="Path 5463" d="M261.045,1652.4h-.181a1.81,1.81,0,0,1-1.81-1.81,5.359,5.359,0,0,0-5.359-5.359h-6.8a16.75,16.75,0,0,1,5.424,12.413l0,.782c.19-.011.38-.019.57-.017h.067a5.607,5.607,0,0,1,5.549,5.664l-.006,6.406a1.82,1.82,0,0,0,2.418,1.72l3.385-1.179a3.136,3.136,0,0,0,2.1-2.961v-10.3A5.359,5.359,0,0,0,261.045,1652.4Z" transform="translate(-219.964 -1645.235)" fill="#534c54"/>
              <path id="Path_5464" data-name="Path 5464" d="M258.158,1707.768h-4.042a2.792,2.792,0,1,1,0-5.585h4.042a2.792,2.792,0,1,1,0,5.585Z" transform="translate(-221.318 -1662.641)" fill="#c60d1c"/>
            </g>
          </g>
        </g>
      </g>
    </g>
  </g>
  <g id="Group_6840" data-name="Group 6840" transform="translate(0 0)">
    <g id="Group_6839" data-name="Group 6839">
      <path id="Path_5465" data-name="Path 5465" d="M266.5,1732.178a29.417,29.417,0,0,0-6.06-17.845l.3-5.5a6.551,6.551,0,0,0-6.546-6.91H236.564a3.074,3.074,0,0,1-1.3-2.51v-4.5a18.247,18.247,0,0,0,6.062-6.183h3.117a6.547,6.547,0,0,0,6.539-6.54v-12.028a5.188,5.188,0,0,0-2.929-4.671v-8.442a6.978,6.978,0,0,0-6.97-6.97H240.9a.2.2,0,0,1-.2-.2,6.978,6.978,0,0,0-6.97-6.97H216.675a15.373,15.373,0,0,0-15.356,15.356v7.225a5.189,5.189,0,0,0-2.929,4.67v6.118a5.2,5.2,0,0,0,5.191,5.191h2.08a18.09,18.09,0,0,0,6.018,11.6,22.139,22.139,0,0,0,2.431,1.825v4.516a3.075,3.075,0,0,1-1.309,2.509H195.175a6.55,6.55,0,0,0-6.545,6.91l.3,5.5a29.416,29.416,0,0,0-6.06,17.845v6.066a5.071,5.071,0,0,0,3.785,8.448h76.063a5.07,5.07,0,0,0,3.786-8.448Zm-3.221,0v4.4a5.069,5.069,0,0,0-.564-.033h-3.481l.91-16.748a26.172,26.172,0,0,1,3.136,12.382Zm-15.687-62.8a1.953,1.953,0,0,1,.166.786v6.117a1.972,1.972,0,0,1-1.97,1.97h-1.915v-6.072l.992-.346A4.745,4.745,0,0,0,247.594,1669.38Zm-10.753,18.662H232.8a1.182,1.182,0,0,1,0-2.364h4.042a1.182,1.182,0,1,1,0,2.364Zm7.6-2.528h-1.628a18.979,18.979,0,0,0,.932-4.039h2.045a5.17,5.17,0,0,0,1.97-.389v1.11A3.322,3.322,0,0,1,244.442,1685.514Zm-39.9-27.243a12.149,12.149,0,0,1,12.134-12.135h17.058a3.753,3.753,0,0,1,3.748,3.749,3.425,3.425,0,0,0,3.421,3.421h.181a3.753,3.753,0,0,1,3.748,3.749v10.3a1.527,1.527,0,0,1-1.023,1.44l-3.385,1.178a.207.207,0,0,1-.277-.2l.006-6.4c.019-4.672-4.354-8.745-10.483-6.777a17.127,17.127,0,0,1-9.968,0c-6.064-1.949-10.5,2.052-10.483,6.771l.008,6.406a.207.207,0,0,1-.277.2l-3.386-1.179a1.525,1.525,0,0,1-1.023-1.439v-9.084Zm-2.929,18.013v-6.117a1.953,1.953,0,0,1,.166-.786,4.744,4.744,0,0,0,2.727,2.456l.992.346v6.072h-1.916A1.972,1.972,0,0,1,201.611,1676.284Zm7.136,3.331c-.053-2.118-.02-4.365-.029-6.423.1.008.2.013.3.013a3.43,3.43,0,0,0,3.432-3.434l-.008-6.41c-.01-2.616,2.335-4.963,6.276-3.7a20.277,20.277,0,0,0,11.939,0c3.755-1.207,6.287.917,6.276,3.7l-.006,6.405a3.429,3.429,0,0,0,3.729,3.42v6.553a15.909,15.909,0,0,1-.665,4.043,4.385,4.385,0,0,0-3.148-1.33H232.8a4.4,4.4,0,1,0,0,8.805h2.046a16.478,16.478,0,0,1-10.075,3.595c-8.132-.065-15.79-6.072-16.023-15.242Zm8.584,19.8V1696.6a19.636,19.636,0,0,0,7.435,1.482h.036a19.654,19.654,0,0,0,7.239-1.469v2.8a6.286,6.286,0,0,0,.523,2.51H216.806a6.266,6.266,0,0,0,.525-2.509ZM189.225,1719.8l.254,4.686a1.61,1.61,0,1,0,3.216-.174l-.849-15.648a3.332,3.332,0,0,1,3.329-3.514H254.2a3.331,3.331,0,0,1,3.328,3.514l-1.513,27.885H230.754a9.885,9.885,0,0,1,2.413-4.988l.046-.051a11.444,11.444,0,0,0-2.886-17.564,2.456,2.456,0,0,0-3.67,2.132v7.308a.608.608,0,0,1-.608.607h-2.727a.608.608,0,0,1-.608-.607v-7.308a2.456,2.456,0,0,0-3.671-2.132,11.443,11.443,0,0,0-2.881,17.569l.042.047a9.89,9.89,0,0,1,2.412,4.987H193.36l-.258-4.761a1.611,1.611,0,0,0-3.217.174l.249,4.587h-3.481a5.057,5.057,0,0,0-.564.033v-4.4a26.172,26.172,0,0,1,3.136-12.382Zm32.646,16.748a13.1,13.1,0,0,0-3.273-7.143l-.039-.044a8.215,8.215,0,0,1,.934-11.833v5.855a3.833,3.833,0,0,0,3.829,3.829h2.727a3.833,3.833,0,0,0,3.829-3.829v-5.855a8.216,8.216,0,0,1,.93,11.838l-.035.039a13.1,13.1,0,0,0-3.273,7.143Zm40.845,6.927H186.654a1.853,1.853,0,0,1,0-3.705h76.063a1.853,1.853,0,1,1,0,3.705Z" transform="translate(-181.58 -1642.915)" fill="#040505"/>
    </g>
  </g>
</svg>
