<svg xmlns="http://www.w3.org/2000/svg" width="32.7" height="33.446" viewBox="0 0 32.7 33.446">
  <path id="Path_5412" data-name="Path 5412" d="M-114.3-204.011h-2.909a3.149,3.149,0,0,1-3.146-3.146v-4.186a1.145,1.145,0,0,0-1.144-1.144h-5.8a1.145,1.145,0,0,0-1.144,1.144v4.186a3.15,3.15,0,0,1-3.146,3.146H-134.5a5.857,5.857,0,0,1-5.85-5.85V-224.58A3.149,3.149,0,0,1-139-227.168l12.8-8.861a3.159,3.159,0,0,1,3.582,0l12.8,8.861a3.145,3.145,0,0,1,1.356,2.588v14.719A5.857,5.857,0,0,1-114.3-204.011Zm-13-10.479h5.8a3.15,3.15,0,0,1,3.146,3.146v4.186a1.145,1.145,0,0,0,1.144,1.144h2.909a3.852,3.852,0,0,0,3.847-3.847V-224.58a1.144,1.144,0,0,0-.493-.941l-12.8-8.863a1.15,1.15,0,0,0-1.3,0l-12.8,8.863a1.144,1.144,0,0,0-.493.941v14.719a3.852,3.852,0,0,0,3.847,3.847h2.909a1.145,1.145,0,0,0,1.144-1.144v-4.186A3.149,3.149,0,0,1-127.305-214.491Z" transform="translate(140.754 237.058)" fill="#788795" stroke="#788795" stroke-width="0.8"/>
</svg>
