<svg xmlns="http://www.w3.org/2000/svg" width="32.77" height="32.77" viewBox="0 0 32.77 32.77">
  <g id="Group_243" data-name="Group 243" transform="translate(-99.098 -1002.098)">
    <path id="Path_241" data-name="Path 241" d="M22.665,0V3.639H3.567V29.122H22.656v3.639c-.066,0-.132.009-.2.009H3.671a3.677,3.677,0,0,1-1.815-.414A3.574,3.574,0,0,1-.081,29.441,3.475,3.475,0,0,1-.1,29V3.78A3.73,3.73,0,0,1,.652,1.439,3.614,3.614,0,0,1,3.125.028,3.6,3.6,0,0,1,3.671,0H22.665Z" transform="translate(99.198 1002.098)" fill="#d32421"/>
    <path id="Path_242" data-name="Path 242" d="M92.147,85.04V77.8c.132.056,10.691,8.839,10.917,9.074q-5.444,4.528-10.87,9.065c-.019-.009-.019-.009-.028-.009l-.009-.009a.071.071,0,0,0-.009-.038V88.736c0-.009-.009-.009-.028-.038H77.6V85.05Q84.864,85.036,92.147,85.04Z" transform="translate(28.804 931.613)" fill="#d32421"/>
  </g>
</svg>
