<svg xmlns="http://www.w3.org/2000/svg" width="33.304" height="33.304" viewBox="0 0 33.304 33.304">
  <g id="Group_6807" data-name="Group 6807" transform="translate(0.4 0.4)">
    <g id="Group_6806" data-name="Group 6806">
      <path id="Path_5420" data-name="Path 5420" d="M-77.685-203.208h-4.688a2.079,2.079,0,0,1-2.016-1.568l-.366-1.451a13.836,13.836,0,0,1-1.276-.539l-1.3.773a2.076,2.076,0,0,1-2.531-.316l-3.315-3.315a2.076,2.076,0,0,1-.316-2.531l.772-1.3c-.214-.449-.391-.868-.538-1.276l-1.45-.366a2.079,2.079,0,0,1-1.57-2.016V-221.8a2.078,2.078,0,0,1,1.57-2.016l1.45-.367c.148-.407.326-.83.539-1.276l-1.6-2.691,4.456-4.456a2.075,2.075,0,0,1,2.531-.318l1.3.773c.446-.212.869-.391,1.277-.538l.366-1.451a2.078,2.078,0,0,1,2.016-1.568h4.688a2.076,2.076,0,0,1,2.014,1.568l.367,1.451c.408.147.83.326,1.276.538l1.3-.773a2.075,2.075,0,0,1,2.53.316l3.316,3.316a2.076,2.076,0,0,1,.316,2.531l-.773,1.3a13.607,13.607,0,0,1,.538,1.276l1.452.367a2.077,2.077,0,0,1,1.567,2.016v4.687a2.078,2.078,0,0,1-1.567,2.016l-1.451.366a13.772,13.772,0,0,1-.539,1.276l.773,1.3a2.076,2.076,0,0,1-.316,2.531l-3.315,3.315a2.078,2.078,0,0,1-2.532.316l-1.3-.773c-.446.214-.869.391-1.276.539l-.367,1.451A2.076,2.076,0,0,1-77.685-203.208ZM-86.1-208.7l.416.212a11.98,11.98,0,0,0,1.893.793l.454.143.6,2.36a.378.378,0,0,0,.367.286h4.688a.378.378,0,0,0,.367-.286l.6-2.36.453-.143a11.991,11.991,0,0,0,1.894-.793l.417-.212,2.1,1.248a.38.38,0,0,0,.462-.059l3.313-3.313a.38.38,0,0,0,.057-.462l-1.247-2.1.211-.418a12.025,12.025,0,0,0,.794-1.893l.143-.454,2.36-.6a.378.378,0,0,0,.286-.367V-221.8a.379.379,0,0,0-.286-.368l-2.36-.6-.143-.453a12.18,12.18,0,0,0-.793-1.893l-.212-.418,1.247-2.1a.378.378,0,0,0-.057-.461l-3.315-3.315a.376.376,0,0,0-.459-.057l-2.1,1.248-.418-.212a12.115,12.115,0,0,0-1.892-.794l-.454-.141-.6-2.361a.378.378,0,0,0-.367-.286h-4.688a.378.378,0,0,0-.367.286l-.6,2.361-.455.141a12.123,12.123,0,0,0-1.89.794l-.418.212-2.1-1.248a.38.38,0,0,0-.461.057l-3.523,3.523,1.4,2.353-.212.418a12.02,12.02,0,0,0-.793,1.892l-.142.454-2.361.6a.38.38,0,0,0-.286.368v4.687a.378.378,0,0,0,.286.367l2.361.6.142.455A12.18,12.18,0,0,0-91-213.806l.212.418-1.248,2.1a.379.379,0,0,0,.057.461l3.316,3.316a.377.377,0,0,0,.461.057Z" transform="translate(96.282 235.712)" fill="#d32421" stroke="#d32421" stroke-width="0.8"/>
    </g>
    <path id="Path_5421" data-name="Path 5421" d="M-85.987-216.974a.568.568,0,0,1,.286.486v10.571H-84v-10.571a2.283,2.283,0,0,0-1.109-1.944h0a5.4,5.4,0,0,1-2.646-4.668,5.474,5.474,0,0,1,.147-1.264l1.456,2.765a1.819,1.819,0,0,0,2.454.761l3.873-2.041a1.8,1.8,0,0,0,.889-1.069,1.8,1.8,0,0,0-.127-1.384l-1.548-2.939a5.487,5.487,0,0,1,3.743,5.292,5.428,5.428,0,0,1-2.648,4.543,2.259,2.259,0,0,0-1.107,1.942v3.648h1.7V-216.5a.568.568,0,0,1,.287-.486,7.125,7.125,0,0,0,3.468-5.963,7.189,7.189,0,0,0-5.919-7.2,1.319,1.319,0,0,0-1.307.531,1.323,1.323,0,0,0-.1,1.406l1.929,3.662a.131.131,0,0,1-.049.157l-3.873,2.041a.118.118,0,0,1-.158-.049l-1.861-3.532a1.311,1.311,0,0,0-1.244-.71,1.323,1.323,0,0,0-1.172.829,7.1,7.1,0,0,0-.53,2.706A7.185,7.185,0,0,0-85.987-216.974Z" transform="translate(98.567 237.57)" fill="#d32421" stroke="#d32421" stroke-width="0.8"/>
    <circle id="Ellipse_248" data-name="Ellipse 248" cx="0.85" cy="0.85" r="0.85" transform="translate(17.939 23.871)" fill="#d32421" stroke="#d32421" stroke-width="0.8"/>
  </g>
</svg>
