<svg xmlns="http://www.w3.org/2000/svg" width="34.364" height="30.928" viewBox="0 0 34.364 30.928">
  <g id="Group_6805" data-name="Group 6805" transform="translate(0.4 0.4)">
    <path id="Path_5417" data-name="Path 5417" d="M-55.342-205.1l-1.144-.583-.015-.654v-23.552a5.279,5.279,0,0,1,5.273-5.274h28.291v18.518a5.279,5.279,0,0,1-5.273,5.273H-45.293a3.112,3.112,0,0,0-1.778.555Zm4.114-27.98a3.194,3.194,0,0,0-3.19,3.19v21.619l6.162-4.261a5.187,5.187,0,0,1,2.964-.924H-28.21a3.2,3.2,0,0,0,3.19-3.19v-16.434Z" transform="translate(56.501 235.161)" fill="#d32421" stroke="#d32421" stroke-width="0.8"/>
    <path id="Path_5418" data-name="Path 5418" d="M-32.737-227.4H-49.018a1.041,1.041,0,0,1-1.041-1.041,1.041,1.041,0,0,1,1.041-1.041h16.281a1.041,1.041,0,0,1,1.041,1.041A1.041,1.041,0,0,1-32.737-227.4Z" transform="translate(58.659 237.064)" fill="#d32421" stroke="#d32421" stroke-width="0.8"/>
    <path id="Path_5419" data-name="Path 5419" d="M-32.737-222.534H-49.018a1.041,1.041,0,0,1-1.041-1.041,1.041,1.041,0,0,1,1.041-1.043h16.281a1.041,1.041,0,0,1,1.041,1.043A1.041,1.041,0,0,1-32.737-222.534Z" transform="translate(58.659 238.692)" fill="#d32421" stroke="#d32421" stroke-width="0.8"/>
  </g>
</svg>
