<svg xmlns="http://www.w3.org/2000/svg" width="26.75" height="28.136" viewBox="0 0 26.75 28.136">
  <g id="Group_6800" data-name="Group 6800" transform="translate(20003.578 24641.428)">
    <g id="Group_6790" data-name="Group 6790" transform="translate(-20003.578 -24641.428)">
      <path id="Path_5299" data-name="Path 5299" d="M23.269,22.292A11.549,11.549,0,0,1,21.6,20.607a1.8,1.8,0,0,1-.432-1.051c-.029-2.189-.029-4.378-.014-6.567h-.274A6.982,6.982,0,0,1,13.893,6a7.313,7.313,0,0,1,.461-2.52c-.043-.014-.1-.029-.144-.043a11.263,11.263,0,0,0-.518-2.131A1.833,1.833,0,0,0,11.906.3c-1.339.043-1.843.778-2.146,3.125-.216.072-.432.144-.662.216a9.027,9.027,0,0,0-6.38,8.641c-.029,1.584,0,3.168-.014,4.753a8.643,8.643,0,0,1-.13,3.125,6.677,6.677,0,0,1-2.1,2.218,1.874,1.874,0,0,0-.547,1.987H23.888A1.819,1.819,0,0,0,23.269,22.292Z" transform="translate(0.14 -0.257)" fill="#333d49"/>
      <circle id="Ellipse_233" data-name="Ellipse 233" cx="5.761" cy="5.761" r="5.761" transform="translate(15.229)" fill="#d32421"/>
      <text id="_7" data-name="7" transform="translate(18.779 8.499)" fill="#fff" font-size="8" font-family="MyriadPro-Bold, Myriad Pro" font-weight="700"><tspan x="0" y="0">7</tspan></text>
    </g>
    <path id="Path_5410" data-name="Path 5410" d="M64.448,178.2h5.425a2.717,2.717,0,0,1-2.719,2.762C65.573,180.948,64.221,179.424,64.448,178.2Z" transform="translate(-20058.496 -24794.254)" fill="#333d49"/>
  </g>
</svg>
