<svg id="Group_6811" data-name="Group 6811" xmlns="http://www.w3.org/2000/svg" width="85" height="103" viewBox="0 0 97.459 118.128">
  <g id="Group_6809" data-name="Group 6809" transform="translate(1.513 22.182)">
    <path id="Path_5423" data-name="Path 5423" d="M270.093,1148.6v20.235l-8.668,2.192a40.082,40.082,0,0,1-2.6,6.206l4.587,7.723-6.812,6.812-7.487,7.487-7.724-4.586a40.165,40.165,0,0,1-6.205,2.6l-2.192,8.667H212.758l-2.193-8.667a40.222,40.222,0,0,1-6.205-2.6l-7.723,4.586-6.813-6.812-7.487-7.487,4.587-7.723a40.148,40.148,0,0,1-2.6-6.206l-8.668-2.192V1148.6l8.668-2.192a40.149,40.149,0,0,1,2.6-6.206l-4.587-7.723.236-.236,14.064-14.064,7.723,4.587a40.246,40.246,0,0,1,6.205-2.6l2.193-8.667h20.235l2.192,8.667a40.189,40.189,0,0,1,6.205,2.6l7.724-4.587,14.3,14.3-4.587,7.723a40.083,40.083,0,0,1,2.6,6.206Zm-18.579,10.117a28.638,28.638,0,1,0-28.638,28.637A28.629,28.629,0,0,0,251.513,1158.718Z" transform="translate(-175.659 -1111.502)" fill="#c60d1c"/>
  </g>
  <path id="Path_5424" data-name="Path 5424" d="M235.991,1108.722H225.377a2.885,2.885,0,0,0-2.886,2.886v7.1a39.549,39.549,0,0,0-11.56,4.792l-5.024-5.021a2.884,2.884,0,0,0-4.083,0l-2.343,2.342a19.279,19.279,0,0,0,8.186,9.9,4.342,4.342,0,0,1,2.136,3.713v3.873a28.993,28.993,0,0,1,20.767-9.967,19.164,19.164,0,0,0,5.421-19.624Z" transform="translate(-181.427 -1088.47)" fill="#040505" opacity="0.3"/>
  <g id="Group_6810" data-name="Group 6810" transform="translate(0 20.669)">
    <path id="Path_5425" data-name="Path 5425" d="M230.52,1206.782H213.9a3.831,3.831,0,0,1-3.718-2.893l-1.545-6.109a42.016,42.016,0,0,1-4.881-2.053l-5.462,3.244a3.832,3.832,0,0,1-4.67-.586l-11.748-11.747a3.832,3.832,0,0,1-.586-4.67l3.244-5.462a41.169,41.169,0,0,1-2.053-4.88l-6.108-1.545a3.832,3.832,0,0,1-2.894-3.718v-16.621a3.832,3.832,0,0,1,2.893-3.717l6.108-1.545a41.194,41.194,0,0,1,2.053-4.88l-4.165-7.014a1.512,1.512,0,0,1,.231-1.842l13.024-13.024a3.832,3.832,0,0,1,4.669-.586l5.462,3.245a41.91,41.91,0,0,1,4.881-2.053l1.545-6.108a3.831,3.831,0,0,1,3.718-2.895H230.52a3.83,3.83,0,0,1,3.717,2.895l1.545,6.107a41.091,41.091,0,0,1,4.881,2.054l5.462-3.244a3.831,3.831,0,0,1,4.67.585l11.748,11.748a3.834,3.834,0,0,1,.586,4.67l-3.245,5.462a41.154,41.154,0,0,1,2.054,4.88l6.107,1.545a3.832,3.832,0,0,1,2.894,3.717v16.621a3.832,3.832,0,0,1-2.893,3.718l-6.108,1.545a41.145,41.145,0,0,1-2.054,4.88l3.244,5.462a3.833,3.833,0,0,1-.585,4.67l-11.748,11.748a3.835,3.835,0,0,1-4.67.586l-5.462-3.245a41.132,41.132,0,0,1-4.881,2.054l-1.545,6.108A3.831,3.831,0,0,1,230.52,1206.782Zm-26.826-14.29a1.508,1.508,0,0,1,.685.164,38.131,38.131,0,0,0,5.971,2.5,1.514,1.514,0,0,1,1.015,1.073l1.749,6.916a.808.808,0,0,0,.785.61H230.52a.807.807,0,0,0,.784-.611l1.749-6.915a1.514,1.514,0,0,1,1.015-1.073,38.158,38.158,0,0,0,5.971-2.5,1.512,1.512,0,0,1,1.458.048l6.172,3.666a.811.811,0,0,0,.985-.124L260.4,1184.5a.809.809,0,0,0,.123-.985l-3.665-6.172a1.512,1.512,0,0,1-.048-1.457,38.244,38.244,0,0,0,2.5-5.972,1.513,1.513,0,0,1,1.073-1.015l6.915-1.748a.809.809,0,0,0,.61-.785v-16.621a.809.809,0,0,0-.61-.785l-6.914-1.748a1.514,1.514,0,0,1-1.073-1.015,38.237,38.237,0,0,0-2.5-5.972,1.513,1.513,0,0,1,.048-1.457l3.665-6.172a.808.808,0,0,0-.123-.984l-11.748-11.748a.81.81,0,0,0-.985-.124L241.5,1123.4a1.512,1.512,0,0,1-1.458.048,38.155,38.155,0,0,0-5.971-2.5,1.511,1.511,0,0,1-1.015-1.073l-1.749-6.915a.808.808,0,0,0-.784-.611H213.9a.809.809,0,0,0-.785.611l-1.749,6.915a1.511,1.511,0,0,1-1.015,1.073,38.187,38.187,0,0,0-5.971,2.5,1.514,1.514,0,0,1-1.458-.048l-6.172-3.666a.809.809,0,0,0-.984.124l-12.193,12.193,3.986,6.712a1.509,1.509,0,0,1,.048,1.457,38.206,38.206,0,0,0-2.5,5.972,1.514,1.514,0,0,1-1.073,1.016l-6.915,1.748a.809.809,0,0,0-.611.785v16.621a.809.809,0,0,0,.612.785l6.914,1.748a1.512,1.512,0,0,1,1.073,1.016,38.209,38.209,0,0,0,2.5,5.971,1.509,1.509,0,0,1-.048,1.457l-3.665,6.172a.809.809,0,0,0,.123.985l11.748,11.748a.808.808,0,0,0,.985.124l6.171-3.666A1.515,1.515,0,0,1,203.694,1192.492Zm18.557-2.756a31.686,31.686,0,1,1,31.6-30.04h0a31.934,31.934,0,0,1-30,30Q223.051,1189.736,222.251,1189.736Zm-.083-60.342q-.724,0-1.45.037a28.764,28.764,0,1,0,1.45-.037Zm30.174,30.226h0Z" transform="translate(-173.48 -1109.323)" fill="#040505"/>
  </g>
  <path id="Path_5426" data-name="Path 5426" d="M263.963,1204.357a29.369,29.369,0,0,1-4.842,3.53,28.978,28.978,0,0,1-12.525,3.849c.718-11.609,4.543-20.471,9.152-20.471,3.569,0,6.664,5.308,8.216,13.092Z" transform="translate(-195.828 -1113.7)" fill="#082782"/>
  <path id="Path_5427" data-name="Path 5427" d="M261.709,1175.385h-6.746v-35.724a7.027,7.027,0,0,1,.811-3.277l1.639-3.11a1.043,1.043,0,0,1,1.846,0l1.639,3.11a7.027,7.027,0,0,1,.811,3.277v35.724Z" transform="translate(-198.385 -1095.804)" fill="#fff"/>
  <path id="Path_5428" data-name="Path 5428" d="M261.34,1195.183H251.074a3.078,3.078,0,0,1,0-6.155H261.34a3.078,3.078,0,0,1,0,6.155Z" transform="translate(-196.256 -1113.016)" fill="#c60d1c"/>
  <path id="Path_5429" data-name="Path 5429" d="M255,1207.481v7.764a28.815,28.815,0,0,0,6.744-2.848v-4.915a1.477,1.477,0,0,0-1.477-1.477h-3.79A1.477,1.477,0,0,0,255,1207.481Z" transform="translate(-198.395 -1118.205)" fill="#fff"/>
  <path id="Path_5430" data-name="Path 5430" d="M207.015,1120.812v48.99a29.052,29.052,0,0,0,15.5,9.278v-58.3a4.347,4.347,0,0,1,2.132-3.711,19.217,19.217,0,0,0-6.589-35.427,1.479,1.479,0,0,0-1.564,2.145l5.9,11.195a2.954,2.954,0,0,1-1.237,3.99l-11.839,6.236a2.954,2.954,0,0,1-3.99-1.237l-5.688-10.8a1.479,1.479,0,0,0-2.679.138,19.248,19.248,0,0,0,7.919,23.783A4.343,4.343,0,0,1,207.015,1120.812Z" transform="translate(-180.22 -1080.187)" fill="#082782"/>
  <path id="Path_5431" data-name="Path 5431" d="M223.323,1180.244l-1.752-.4c-6.83-1.543-12.3-4.636-16.271-9.193l-.353-.4V1120.18a2.89,2.89,0,0,0-1.439-2.482A20.683,20.683,0,0,1,195,1092.139a2.914,2.914,0,0,1,5.278-.262l5.688,10.8a1.52,1.52,0,0,0,2.051.635l11.838-6.237a1.517,1.517,0,0,0,.636-2.05l-5.9-11.195a2.916,2.916,0,0,1,3.079-4.23,20.653,20.653,0,0,1,7.087,38.071,2.9,2.9,0,0,0-1.439,2.483Zm-15.5-11.078a26.236,26.236,0,0,0,12.633,7.439v-56.453a5.748,5.748,0,0,1,2.824-4.94,17.781,17.781,0,0,0-6.09-32.783l-.057.042,5.9,11.214a4.391,4.391,0,0,1-1.839,5.93l-11.839,6.237a4.4,4.4,0,0,1-5.93-1.839l-5.688-10.8-.08.012a17.812,17.812,0,0,0,7.329,22.007,5.814,5.814,0,0,1,2.833,4.945Z" transform="translate(-179.588 -1079.555)" fill="#040505"/>
  <path id="Path_5432" data-name="Path 5432" d="M260.708,1195.987H250.442a4.514,4.514,0,0,1,0-9.027h10.266a4.514,4.514,0,0,1,0,9.027Zm-10.266-6.155a1.641,1.641,0,1,0,0,3.282h10.266a1.641,1.641,0,1,0,0-3.282Z" transform="translate(-195.624 -1112.384)" fill="#040505"/>
  <path id="Path_5433" data-name="Path 5433" d="M244.112,1216.149l.038-1.578a43.834,43.834,0,0,1,4.131-18.063l.453-.873,1.18.133,10.415-.026.974-.1.451.869a31.8,31.8,0,0,1,3.481,10.312l.1.755-.567.51a34.077,34.077,0,0,1-5.376,3.848,32.4,32.4,0,0,1-7.364,3.025,33.058,33.058,0,0,1-6.348,1.081Zm6.321-17.51a41.3,41.3,0,0,0-3.343,14.377,29.716,29.716,0,0,0,10.863-3.565,32.354,32.354,0,0,0,4.319-3,28.651,28.651,0,0,0-2.656-7.813Z" transform="translate(-195.069 -1115.035)" fill="#040505"/>
  <path id="Path_5434" data-name="Path 5434" d="M262.513,1172.621H252.9v-33.592a8.5,8.5,0,0,1,.976-3.948l1.639-3.109a2.475,2.475,0,0,1,2.193-1.324h0a2.472,2.472,0,0,1,2.192,1.324l1.639,3.11a8.5,8.5,0,0,1,.977,3.947Zm-6.746-2.873h3.875v-30.719a5.61,5.61,0,0,0-.646-2.607l-1.292-2.451-1.292,2.45a5.621,5.621,0,0,0-.645,2.608Z" transform="translate(-197.753 -1095.172)" fill="#040505"/>
  <path id="Path_5435" data-name="Path 5435" d="M221.681,1185.356V1153.9a1.476,1.476,0,1,1,2.952,0v31.458a1.476,1.476,0,1,1-2.952,0Z" transform="translate(-188.213 -1101.827)" fill="#fff"/>
</svg>
