<svg xmlns="http://www.w3.org/2000/svg" width="27.1" height="33.8" viewBox="0 0 27.1 33.8">
  <g id="Group_241" data-name="Group 241" transform="translate(-249.4 -1322.525)">
    <g id="Group_230" data-name="Group 230">
      <path id="Path_214" data-name="Path 214" d="M455,4.4a7.1,7.1,0,1,0,7.1,7.1A6.941,6.941,0,0,0,455,4.4Zm0,16.2a9.1,9.1,0,1,1,9.1-9.1A9.006,9.006,0,0,1,455,20.6Z" transform="translate(-192.4 1320.525)" fill="#333d49"/>
      <path id="Path_215" data-name="Path 215" d="M447,28.1c-2,.5-2.9,1.4-2.9,2.2s.9,1.7,2.9,2.2a38.721,38.721,0,0,0,16.6,0c2-.5,2.9-1.4,2.9-2.2s-.9-1.7-2.9-2.2A38.721,38.721,0,0,0,447,28.1Zm8.3,7.3a35.722,35.722,0,0,1-8.7-1c-3.3-.7-4.4-2.6-4.4-4.1s1.2-3.4,4.4-4.1h0a39.75,39.75,0,0,1,17.5,0c3.3.7,4.4,2.6,4.4,4.1s-1.2,3.4-4.4,4.1A43.968,43.968,0,0,1,455.3,35.4Z" transform="translate(-192.4 1320.525)" fill="#333d49"/>
      <path id="Path_216" data-name="Path 216" d="M455,4.4a7.1,7.1,0,1,0,7.1,7.1A6.941,6.941,0,0,0,455,4.4Zm0,16.2a9.1,9.1,0,1,1,9.1-9.1A9.006,9.006,0,0,1,455,20.6Z" transform="translate(-192.4 1320.525)" fill="none" stroke="#333d49" stroke-width="0.8"/>
      <path id="Path_217" data-name="Path 217" d="M447,28.1c-2,.5-2.9,1.4-2.9,2.2s.9,1.7,2.9,2.2a38.721,38.721,0,0,0,16.6,0c2-.5,2.9-1.4,2.9-2.2s-.9-1.7-2.9-2.2A38.721,38.721,0,0,0,447,28.1Zm8.3,7.3a35.722,35.722,0,0,1-8.7-1c-3.3-.7-4.4-2.6-4.4-4.1s1.2-3.4,4.4-4.1h0a39.75,39.75,0,0,1,17.5,0c3.3.7,4.4,2.6,4.4,4.1s-1.2,3.4-4.4,4.1A43.968,43.968,0,0,1,455.3,35.4Z" transform="translate(-192.4 1320.525)" fill="none" stroke="#333d49" stroke-width="0.8"/>
    </g>
  </g>
</svg>
