<svg id="Group_6817" data-name="Group 6817" xmlns="http://www.w3.org/2000/svg" width="85" height="103" viewBox="0 0 99.226 105.359">
  <path id="Path_5437" data-name="Path 5437" d="M181.836,1406.156h48.316a5.483,5.483,0,0,1,5.483,5.483v57.225l-16.791,16.791H181.836a5.483,5.483,0,0,1-5.483-5.483v-68.533A5.483,5.483,0,0,1,181.836,1406.156Z" transform="translate(-174.971 -1381.679)" fill="#5ac6e9"/>
  <path id="Path_5438" data-name="Path 5438" d="M218.236,1486.429H181.228a6.873,6.873,0,0,1-6.865-6.866V1411.03a6.873,6.873,0,0,1,6.865-6.865h48.316a6.873,6.873,0,0,1,6.865,6.865v57.225a1.381,1.381,0,0,1-.4.978l-16.791,16.792A1.384,1.384,0,0,1,218.236,1486.429Zm-37.008-79.5a4.105,4.105,0,0,0-4.1,4.1v68.533a4.105,4.105,0,0,0,4.1,4.1h36.435l15.981-15.981V1411.03a4.105,4.105,0,0,0-4.1-4.1Zm53.8,61.325h0Z" transform="translate(-174.363 -1381.07)" fill="#040505"/>
  <g id="Group_6812" data-name="Group 6812" transform="translate(42.491 85.802)">
    <path id="Path_5439" data-name="Path 5439" d="M237.548,1499.209v14.049l16.791-16.791H240.29A2.742,2.742,0,0,0,237.548,1499.209Z" transform="translate(-236.166 -1495.086)" fill="#fff"/>
    <path id="Path_5440" data-name="Path 5440" d="M236.94,1514.033a1.383,1.383,0,0,1-1.382-1.383V1498.6a4.129,4.129,0,0,1,4.124-4.124h14.049a1.382,1.382,0,0,1,.978,2.36l-16.791,16.792A1.384,1.384,0,0,1,236.94,1514.033Zm2.742-16.791a1.361,1.361,0,0,0-1.36,1.359v10.712l12.071-12.071Z" transform="translate(-235.558 -1494.477)" fill="#040505"/>
  </g>
  <g id="Group_6815" data-name="Group 6815" transform="translate(38.493 0)">
    <g id="Group_6813" data-name="Group 6813" transform="translate(1.68 1.679)">
      <path id="Path_5441" data-name="Path 5441" d="M289.594,1397.313v9.392a1.864,1.864,0,0,1-1.407,1.807l-3.86.976a24.393,24.393,0,0,1-1.578,3.77l2.047,3.448a1.863,1.863,0,0,1-.284,2.269l-3.116,3.115-3.525,3.525a1.864,1.864,0,0,1-2.269.285l-3.447-2.047a24.329,24.329,0,0,1-3.77,1.578l-.976,3.859a1.864,1.864,0,0,1-1.807,1.407h-9.392a1.864,1.864,0,0,1-1.807-1.407l-.976-3.859a24.356,24.356,0,0,1-3.77-1.578l-3.447,2.047a1.865,1.865,0,0,1-2.27-.285l-3.115-3.115-3.525-3.525a1.862,1.862,0,0,1-.285-2.269l2.047-3.448a24.391,24.391,0,0,1-1.578-3.77l-3.859-.976a1.864,1.864,0,0,1-1.407-1.807v-9.392a1.863,1.863,0,0,1,1.407-1.807l3.859-.976a24.406,24.406,0,0,1,1.578-3.77l-2.786-4.692.143-.144,7.521-7.52a1.865,1.865,0,0,1,2.27-.285l3.447,2.048a24.417,24.417,0,0,1,3.77-1.578l.976-3.859a1.864,1.864,0,0,1,1.807-1.407H265.6a1.864,1.864,0,0,1,1.807,1.407l.976,3.859a24.39,24.39,0,0,1,3.77,1.578l3.447-2.048a1.864,1.864,0,0,1,2.269.285l6.64,6.64a1.864,1.864,0,0,1,.284,2.269l-2.047,3.447a24.408,24.408,0,0,1,1.578,3.77l3.86.976A1.864,1.864,0,0,1,289.594,1397.313Zm-20.491,4.7a8.2,8.2,0,1,0-8.2,8.2A8.194,8.194,0,0,0,269.1,1402.009Z" transform="translate(-232.22 -1373.322)" fill="#c60d1c"/>
    </g>
    <g id="Group_6814" data-name="Group 6814">
      <path id="Path_5442" data-name="Path 5442" d="M264.864,1431.636h-9.392a3.539,3.539,0,0,1-3.434-2.674l-.753-2.974c-.733-.266-1.491-.587-2.291-.966l-2.665,1.583a3.541,3.541,0,0,1-4.315-.541l-6.639-6.64a3.541,3.541,0,0,1-.542-4.314l1.583-2.665c-.38-.8-.7-1.558-.967-2.291l-2.974-.752a3.542,3.542,0,0,1-2.675-3.436v-9.392a3.54,3.54,0,0,1,2.674-3.434l2.974-.752c.266-.735.584-1.487.967-2.292l-2.322-3.91a1.678,1.678,0,0,1,.258-2.046l7.663-7.662a3.538,3.538,0,0,1,4.314-.542l2.664,1.583c.8-.379,1.557-.7,2.291-.967l.753-2.974a3.538,3.538,0,0,1,3.434-2.674h9.392a3.539,3.539,0,0,1,3.435,2.674l.752,2.974c.734.267,1.494.587,2.291.967l2.665-1.583a3.539,3.539,0,0,1,4.315.542l6.639,6.639a3.538,3.538,0,0,1,.542,4.314l-1.582,2.664c.383.8.7,1.557.967,2.292l2.973.752a3.54,3.54,0,0,1,2.674,3.434v9.392a3.541,3.541,0,0,1-2.673,3.435l-2.975.753c-.267.732-.587,1.491-.967,2.291l1.583,2.664a3.54,3.54,0,0,1-.542,4.315l-6.639,6.64a3.539,3.539,0,0,1-4.314.541l-2.665-1.583c-.8.383-1.557.7-2.291.967l-.752,2.973A3.54,3.54,0,0,1,264.864,1431.636Zm-15.946-10.2a1.689,1.689,0,0,1,.761.181,22.553,22.553,0,0,0,3.511,1.474,1.677,1.677,0,0,1,1.126,1.19l.976,3.859a.185.185,0,0,0,.179.14h9.392a.185.185,0,0,0,.179-.14l.976-3.859a1.677,1.677,0,0,1,1.126-1.19,22.58,22.58,0,0,0,3.511-1.474,1.679,1.679,0,0,1,1.619.054l3.447,2.047a.184.184,0,0,0,.224-.028l6.64-6.64a.185.185,0,0,0,.028-.225l-2.047-3.446a1.681,1.681,0,0,1-.053-1.619,22.527,22.527,0,0,0,1.473-3.511,1.681,1.681,0,0,1,1.191-1.128l3.859-.976a.184.184,0,0,0,.14-.179v-9.392a.186.186,0,0,0-.14-.179l-3.859-.975a1.677,1.677,0,0,1-1.191-1.127,22.62,22.62,0,0,0-1.473-3.511,1.681,1.681,0,0,1,.053-1.619l2.047-3.447a.183.183,0,0,0-.028-.224l-6.64-6.64a.182.182,0,0,0-.224-.028l-3.448,2.047a1.679,1.679,0,0,1-1.619.053,22.694,22.694,0,0,0-3.51-1.472,1.68,1.68,0,0,1-1.126-1.191l-.976-3.86a.185.185,0,0,0-.179-.139h-9.392a.184.184,0,0,0-.178.139l-.977,3.86a1.68,1.68,0,0,1-1.126,1.191,22.834,22.834,0,0,0-3.51,1.472,1.677,1.677,0,0,1-1.619-.053l-3.447-2.047a.181.181,0,0,0-.224.028l-6.741,6.741,2.12,3.57a1.678,1.678,0,0,1,.053,1.618,22.467,22.467,0,0,0-1.472,3.51,1.678,1.678,0,0,1-1.191,1.128l-3.859.976a.185.185,0,0,0-.14.178v9.392a.184.184,0,0,0,.14.179l3.859.976a1.68,1.68,0,0,1,1.191,1.128,22.511,22.511,0,0,0,1.472,3.51,1.679,1.679,0,0,1-.053,1.619l-2.047,3.447a.184.184,0,0,0,.028.224l6.64,6.64a.185.185,0,0,0,.224.028l3.447-2.047A1.676,1.676,0,0,1,248.918,1421.434Zm11.25-2.093a18.072,18.072,0,1,1,18.072-18.072A18.092,18.092,0,0,1,260.168,1419.342Zm0-32.786a14.714,14.714,0,1,0,14.713,14.714A14.73,14.73,0,0,0,260.168,1386.556Z" transform="translate(-229.801 -1370.904)" fill="#040505"/>
    </g>
    <path id="Path_5443" data-name="Path 5443" d="M269.188,1420.165a9.875,9.875,0,1,1,9.875-9.875A9.886,9.886,0,0,1,269.188,1420.165Zm0-16.392a6.517,6.517,0,1,0,6.517,6.517A6.525,6.525,0,0,0,269.188,1403.773Z" transform="translate(-238.821 -1379.924)" fill="#040505"/>
  </g>
  <g id="Group_6816" data-name="Group 6816" transform="translate(8.946 39.627)">
    <path id="Path_5444" data-name="Path 5444" d="M192.543,1440.243a2.21,2.21,0,0,1-1.553-.635l-3.075-3.009a2.22,2.22,0,0,1,3.107-3.173l1.5,1.467,6.223-6.263a2.221,2.221,0,0,1,3.15,3.13l-7.776,7.827A2.212,2.212,0,0,1,192.543,1440.243Z" transform="translate(-187.247 -1427.975)" fill="#040505"/>
    <path id="Path_5445" data-name="Path 5445" d="M227.832,1438.866h-5.88a2.221,2.221,0,1,1,0-4.441h5.88a2.221,2.221,0,0,1,0,4.441Z" transform="translate(-197.176 -1429.946)" fill="#040505"/>
    <path id="Path_5446" data-name="Path 5446" d="M192.543,1465.022a2.213,2.213,0,0,1-1.553-.634l-3.075-3.009a2.221,2.221,0,1,1,3.107-3.174l1.5,1.468,6.223-6.264a2.22,2.22,0,0,1,3.15,3.13l-7.776,7.827A2.215,2.215,0,0,1,192.543,1465.022Z" transform="translate(-187.247 -1435.548)" fill="#040505"/>
    <path id="Path_5447" data-name="Path 5447" d="M239.108,1463.646H221.952a2.221,2.221,0,1,1,0-4.442h17.156a2.221,2.221,0,0,1,0,4.442Z" transform="translate(-197.176 -1437.52)" fill="#040505"/>
    <path id="Path_5448" data-name="Path 5448" d="M192.543,1489.8a2.212,2.212,0,0,1-1.553-.634l-3.075-3.009a2.22,2.22,0,1,1,3.107-3.173l1.5,1.467,6.223-6.262a2.22,2.22,0,1,1,3.15,3.129l-7.776,7.827A2.213,2.213,0,0,1,192.543,1489.8Z" transform="translate(-187.247 -1443.123)" fill="#040505"/>
    <path id="Path_5449" data-name="Path 5449" d="M239.108,1488.425H221.952a2.221,2.221,0,1,1,0-4.442h17.156a2.221,2.221,0,0,1,0,4.442Z" transform="translate(-197.176 -1445.094)" fill="#040505"/>
  </g>
</svg>
