<svg xmlns="http://www.w3.org/2000/svg" width="29.04" height="38.069" viewBox="0 0 29.04 38.069">
  <g id="Group_242" data-name="Group 242" transform="translate(-31.6 -887.6)">
    <path id="Path_234" data-name="Path 234" d="M28.085,29.154h0V3.114A3.1,3.1,0,0,0,24.972,0H3.114A3.1,3.1,0,0,0,0,3.114V34.155a3.1,3.1,0,0,0,3.114,3.114H20.065c.031,0,.031,0,.063-.031.031,0,.031-.031.063-.031s.031-.031.063-.031c.031-.031.063-.063.094-.063L27.959,29.5c.031-.031.063-.094.094-.126a.031.031,0,0,1,.031-.031C28.054,29.249,28.085,29.217,28.085,29.154Zm-26.827,5V3.114A1.839,1.839,0,0,1,3.114,1.258H25a1.839,1.839,0,0,1,1.856,1.856V28.4H21.1a1.859,1.859,0,0,0-1.856,1.856v5.724H3.114A1.813,1.813,0,0,1,1.258,34.155Zm19.248.975V30.287a.631.631,0,0,1,.629-.629h4.843Z" transform="translate(32 888)" fill="#333d49" stroke="#333d49" stroke-width="0.8"/>
    <path id="Path_235" data-name="Path 235" d="M18.021,24.132,15.19,26.962,14.5,26.3a1,1,0,1,0-1.415,1.415l1.384,1.352a.976.976,0,0,0,.692.283,1.108,1.108,0,0,0,.723-.283l3.585-3.522a1.026,1.026,0,0,0,0-1.415A1.007,1.007,0,0,0,18.021,24.132Z" transform="translate(23.226 871.668)" fill="#333d49" stroke="#333d49" stroke-width="0.8"/>
    <path id="Path_236" data-name="Path 236" d="M46.338,32.313H48.98a1.006,1.006,0,0,0,0-2.013H46.306A.994.994,0,0,0,45.3,31.306,1.02,1.02,0,0,0,46.338,32.313Z" transform="translate(0.947 867.229)" fill="#333d49" stroke="#333d49" stroke-width="0.8"/>
    <path id="Path_237" data-name="Path 237" d="M18.021,48.883,15.19,51.714l-.692-.66a1,1,0,0,0-1.415,1.415l1.384,1.352a.976.976,0,0,0,.692.283,1.108,1.108,0,0,0,.723-.283L19.467,50.3a1.026,1.026,0,0,0,0-1.415A1.066,1.066,0,0,0,18.021,48.883Z" transform="translate(23.226 854.685)" fill="#333d49" stroke="#333d49" stroke-width="0.8"/>
    <path id="Path_238" data-name="Path 238" d="M46.406,57.013h7.768a.994.994,0,0,0,1.006-1.006A1.013,1.013,0,0,0,54.175,55H46.406a1.006,1.006,0,1,0,0,2.013Z" transform="translate(0.878 850.298)" fill="#333d49" stroke="#333d49" stroke-width="0.8"/>
    <path id="Path_239" data-name="Path 239" d="M18.021,73.683,15.19,76.514l-.692-.66a1,1,0,0,0-1.415,1.415l1.384,1.352a.976.976,0,0,0,.692.283,1.108,1.108,0,0,0,.723-.283L19.467,75.1a1.026,1.026,0,0,0,0-1.415A1.066,1.066,0,0,0,18.021,73.683Z" transform="translate(23.226 837.685)" fill="#333d49" stroke="#333d49" stroke-width="0.8"/>
    <path id="Path_240" data-name="Path 240" d="M54.175,81.813a1.006,1.006,0,1,0,0-2.013H46.406a1.006,1.006,0,1,0,0,2.013Z" transform="translate(0.878 833.297)" fill="#333d49" stroke="#333d49" stroke-width="0.8"/>
  </g>
</svg>
