<svg width="164" height="163" viewBox="0 0 164 163" fill="none" xmlns="http://www.w3.org/2000/svg">
<path d="M154.82 57.3771C154.82 45.8771 122.37 36.7271 82.251 36.7271C75.024 36.7271 67.944 37.0221 61.306 37.6121C51.7073 48.285 44.0678 60.5684 38.739 73.897C50.834 76.552 66.026 78.027 82.398 78.027C122.37 78.027 154.82 68.7341 154.82 57.3771Z" fill="#D32421"/>
<path d="M82.398 85.402C70.0407 85.4167 57.7045 84.3796 45.523 82.302V82.302C75.318 135.549 131.223 131.566 148.034 129.202C158.121 115.314 163.544 98.584 163.523 81.419C163.492 74.8111 162.7 68.2287 161.163 61.802C155.999 75.077 122.665 85.402 82.398 85.402Z" fill="#D32421"/>
<path d="M67.648 31.122C72.368 30.8273 77.2347 30.68 82.248 30.68C116.025 30.68 144.935 37.907 156.44 48.08C147.745 28.6226 131.745 13.366 111.897 5.60498C95.3847 10.6024 80.2442 19.3335 67.648 31.122V31.122Z" fill="#D32421"/>
<path d="M9.82901 57.377C9.82901 63.129 17.941 68.292 30.921 71.977C35.3669 59.9923 41.6902 48.7908 49.654 38.792C26.054 42.184 9.82901 49.264 9.82901 57.377Z" fill="#D32421"/>
<path d="M55.406 32.3001C68.0017 19.0431 83.3606 8.72068 100.393 2.06508C82.0359 -2.15824 62.7813 0.139225 45.9333 8.56321C29.0853 16.9872 15.6946 31.0124 8.05899 48.2321C16.319 40.8571 33.724 34.9571 55.406 32.3001Z" fill="#D32421"/>
<path d="M36.231 80.6819C30.479 97.4969 27.231 117.557 27.971 141.894C43.4808 155.827 63.7551 163.261 84.5954 162.657C105.436 162.053 125.245 153.457 139.922 138.649C67.353 142.631 41.838 96.4639 36.231 80.6819Z" fill="#D32421"/>
<path d="M28.856 78.3211C15.139 74.0441 5.846 68.1441 3.339 61.6541C1.80168 68.0807 1.0098 74.6631 0.979004 81.2711C0.984536 101.211 8.27489 120.462 21.479 135.403C20.891 112.836 23.694 94.1041 28.856 78.3211Z" fill="#D32421"/>
</svg>
