<svg xmlns="http://www.w3.org/2000/svg" width="194.006" height="43" viewBox="0 0 194.006 43">
  <g id="Group_6797" data-name="Group 6797" transform="translate(0 2.477)">
    <text id="PT_RUTAN" data-name="PT RUTAN" transform="translate(48.006 29.523)" fill="#d32421" font-size="30" font-family="Poppins-Bold, Poppins" font-weight="700"><tspan x="0" y="0">PT RUTAN</tspan></text>
    <g id="Group_6674" data-name="Group 6674" transform="translate(0 0)">
      <path id="Path_5323" data-name="Path 5323" d="M52.692,29.719c0-2.685-7.573-4.819-16.937-4.819-1.687,0-3.339.069-4.888.207A28.468,28.468,0,0,0,25.6,33.575a49.023,49.023,0,0,0,10.189.964C45.118,34.539,52.692,32.37,52.692,29.719Z" transform="translate(-16.787 -16.328)" fill="#d32421"/>
      <path id="Path_5324" data-name="Path 5324" d="M38.806,47.408a50.83,50.83,0,0,1-8.606-.723h0c6.954,12.427,20,11.5,23.925,10.947a18.938,18.938,0,0,0,3.615-11.153,20.082,20.082,0,0,0-.551-4.578C55.983,45,48.2,47.408,38.806,47.408Z" transform="translate(-19.804 -27.476)" fill="#d32421"/>
      <path id="Path_5325" data-name="Path 5325" d="M45.2,9.755q1.652-.1,3.408-.1c7.883,0,14.63,1.687,17.315,4.062A18.942,18.942,0,0,0,55.527,3.8,26.235,26.235,0,0,0,45.2,9.755Z" transform="translate(-29.64 -2.492)" fill="#d32421"/>
      <path id="Path_5326" data-name="Path 5326" d="M6,30.637c0,1.343,1.893,2.547,4.923,3.408A28.141,28.141,0,0,1,15.294,26.3C9.787,27.092,6,28.744,6,30.637Z" transform="translate(-3.935 -17.247)" fill="#d32421"/>
      <path id="Path_5327" data-name="Path 5327" d="M15.85,7.539A29.084,29.084,0,0,1,26.349.482,18.93,18.93,0,0,0,4.8,11.257C6.728,9.535,10.79,8.158,15.85,7.539Z" transform="translate(-3.148 0)" fill="#d32421"/>
      <path id="Path_5328" data-name="Path 5328" d="M20.182,54.7a39.979,39.979,0,0,0-1.928,14.286,18.953,18.953,0,0,0,26.128-.757C27.445,69.158,21.49,58.383,20.182,54.7Z" transform="translate(-11.954 -35.87)" fill="#d32421"/>
      <path id="Path_5329" data-name="Path 5329" d="M6.506,45.69c-3.2-1-5.37-2.375-5.955-3.89A20.082,20.082,0,0,0,0,46.378,19.086,19.086,0,0,0,4.785,59.012,39.252,39.252,0,0,1,6.506,45.69Z" transform="translate(0 -27.411)" fill="#d32421"/>
    </g>
  </g>
</svg>
